<?xml version="1.0" encoding="utf-8"?>
<!-- Generator: Adobe Illustrator 24.0.2, SVG Export Plug-In . SVG Version: 6.00 Build 0)  -->
<svg version="1.1" id="Camada_1" xmlns="http://www.w3.org/2000/svg" xmlns:xlink="http://www.w3.org/1999/xlink" x="0px" y="0px"
	 viewBox="0 0 44 44" style="enable-background:new 0 0 44 44;" xml:space="preserve">
<style type="text/css">
	.st0{fill:#FFFFFF;}
	.st1{fill:#00D67C;}
</style>
<g>
	<path class="st0" d="M28.28,1.67L28.28,1.67c-0.08-0.03-0.17-0.05-0.26-0.05c-0.4,0-0.73,0.33-0.73,0.73c0,0.33,0.21,0.6,0.51,0.69
		l0,0.01c0.29,0.08,0.58,0.17,0.86,0.27l2.16,5.24l-4.16,5.58l-2.71-0.05c0,0,0,0-0.01,0c0,0,0,0,0,0l-0.03,0l0,0
		c-0.39,0.02-0.69,0.33-0.69,0.72c0,0.4,0.33,0.73,0.73,0.73c0.02,0,0.03,0,0.05-0.01l2.49,0.06l2.74,8.54l-7.36,5.1l-2.3-1.73l0,0
		c-0.13-0.11-0.3-0.18-0.48-0.18c-0.41,0-0.74,0.33-0.74,0.74c0,0.3,0.18,0.56,0.44,0.67l2.33,1.75l-0.15,7.87l-4.85,2.56
		c-0.49-0.14-0.97-0.31-1.44-0.49c0,0-0.01,0-0.01,0c-0.01,0-0.02-0.01-0.03-0.01l0,0c-0.08-0.03-0.16-0.05-0.25-0.05
		c-0.4,0-0.73,0.33-0.73,0.73c0,0.32,0.21,0.59,0.5,0.69l0,0c2.23,0.85,4.62,1.33,7.11,1.38c0.11,0,0.22,0,0.34,0
		c0.11,0,0.23,0.01,0.34,0.01c10.61,0.2,19.93-7.59,21.37-18.36C44.72,14.31,38.16,4.56,28.28,1.67z M30.54,4.07
		c0.61,0.28,1.22,0.6,1.8,0.94c1.73,1.03,3.29,2.3,4.63,3.79l-4.78-0.74L30.54,4.07z M21.96,41.73c-0.11,0-0.22-0.01-0.34-0.01h0
		c-0.11,0-0.23,0-0.34,0c-1.02-0.02-2.02-0.12-3.01-0.29l3.39-1.79l3.32,1.92C23.99,41.69,22.98,41.75,21.96,41.73z M35.11,37.02
		c-2.32,1.98-5.05,3.38-7.95,4.12l-4.75-2.74l0.15-7.87l7.47-5.18l6.04,2.65l1.19,6.89C36.61,35.64,35.89,36.36,35.11,37.02z
		 M41.86,24.64c-0.42,3.15-1.6,6.12-3.39,8.69l-0.96-5.54l4.38-3.47C41.89,24.42,41.88,24.53,41.86,24.64z M42.04,22.34l-5.42,4.29
		l-5.9-2.59l-2.9-9.04l4.11-5.51l6.4,0.98c1.38,1.92,2.4,4.05,3.02,6.33C41.85,18.63,42.07,20.48,42.04,22.34z"/>
	<path class="st1" d="M11.12,38.66L11.12,38.66c-0.99-0.63-1.92-1.35-2.8-2.15c-0.75-0.69-1.44-1.43-2.07-2.22l1.45-6.84l6.13-2.42
		l1.33,1l0,0c0.13,0.11,0.29,0.18,0.48,0.18c0.4,0,0.73-0.33,0.73-0.73c0-0.28-0.16-0.52-0.39-0.64l0-0.01l-1.29-0.97l3.06-8.43
		l1.53,0.03l0,0c0.01,0,0.02,0,0.03,0c0.4,0,0.73-0.33,0.73-0.73c0-0.4-0.33-0.73-0.73-0.73l-1.68-0.03L13.7,8.23l2.36-5.15
		c1.21-0.36,2.46-0.6,3.74-0.73c0.76-0.07,1.53-0.1,2.29-0.09h0c0.1,0,0.19,0.01,0.28,0.01c0,0,0,0,0,0c0.09,0,0.19,0,0.29,0h0
		c0.41,0.01,0.83,0.03,1.25,0.06l0,0c0.04,0.01,0.07,0.01,0.11,0.01c0.4,0,0.73-0.33,0.73-0.73c0-0.38-0.29-0.69-0.67-0.72
		c-0.01,0-0.01,0-0.02,0c-0.01,0-0.03,0-0.04,0c-0.45-0.04-0.89-0.06-1.34-0.07c-0.1,0-0.19,0-0.28,0c-0.09,0-0.19-0.01-0.28-0.01
		c-0.81-0.02-1.63,0.02-2.45,0.09C8.02,2.02-0.52,12.37,0.6,24.02c0.65,6.76,4.41,12.48,9.73,15.86c0.01,0.01,0.01,0.01,0.02,0.01
		c0.12,0.09,0.27,0.15,0.44,0.15c0.4,0,0.73-0.33,0.73-0.73C11.52,39.02,11.36,38.78,11.12,38.66z M12.31,4.63
		c0.6-0.32,1.21-0.62,1.84-0.87l-1.8,3.93l-4.8,0.55C8.94,6.8,10.54,5.59,12.31,4.63z M2.86,16.09c0.71-2.26,1.81-4.34,3.26-6.21
		l6.43-0.74l3.89,5.66l-3.24,8.92l-5.99,2.36l-5.25-4.49C2,19.72,2.3,17.87,2.86,16.09z M2.05,23.88c-0.01-0.11-0.02-0.22-0.03-0.33
		l4.25,3.63l-1.17,5.5C3.41,30.06,2.35,27.05,2.05,23.88z"/>
</g>
</svg>
