<?xml version="1.0" encoding="utf-8"?>
<!-- Generator: Adobe Illustrator 24.0.2, SVG Export Plug-In . SVG Version: 6.00 Build 0)  -->
<svg version="1.1" id="Camada_1" xmlns="http://www.w3.org/2000/svg" xmlns:xlink="http://www.w3.org/1999/xlink" x="0px" y="0px"
	 viewBox="0 0 60 60" style="enable-background:new 0 0 60 60;" xml:space="preserve">
<style type="text/css">
	.st0{fill:#2A2D36;stroke:#2A2D36;stroke-miterlimit:10;}
</style>
<g>
	<g>
		<g>
			<path class="st0" d="M30,29.52c-0.33,0-0.64-0.16-0.84-0.42c-0.89-1.19-8.69-11.77-8.69-16.66c0-5.25,4.27-9.53,9.53-9.53
				s9.53,4.27,9.53,9.53c0,4.89-7.8,15.47-8.69,16.66C30.64,29.37,30.33,29.52,30,29.52z M30,5.01c-4.1,0-7.43,3.33-7.43,7.43
				c0,3.18,4.78,10.53,7.43,14.25c2.65-3.72,7.43-11.08,7.43-14.25C37.43,8.34,34.1,5.01,30,5.01z"/>
		</g>
		<g>
			<path class="st0" d="M30,15.37c-1.79,0-3.25-1.46-3.25-3.25c0-1.79,1.46-3.25,3.25-3.25s3.25,1.46,3.25,3.25
				C33.25,13.91,31.79,15.37,30,15.37z M30,10.96c-0.64,0-1.16,0.52-1.16,1.15c0,0.64,0.52,1.16,1.16,1.16s1.16-0.52,1.16-1.16
				C31.16,11.48,30.64,10.96,30,10.96z"/>
		</g>
	</g>
	<g>
		<g>
			
				<rect x="-7.57" y="35.55" transform="matrix(0.1855 -0.9826 0.9826 0.1855 -25.3012 42.6652)" class="st0" width="41.32" height="2.1"/>
		</g>
		<g>
			
				<rect x="45.86" y="15.94" transform="matrix(0.9826 -0.1856 0.1856 0.9826 -5.9762 9.3413)" class="st0" width="2.1" height="41.32"/>
		</g>
		<g>
			<rect x="28.95" y="47.45" class="st0" width="2.1" height="8.71"/>
		</g>
		<g>
			<rect x="28.95" y="33.71" class="st0" width="2.1" height="8.71"/>
		</g>
	</g>
</g>
<circle class="st0" cx="30" cy="12" r="1.5"/>
<g>
</g>
<g>
</g>
<g>
</g>
<g>
</g>
<g>
</g>
<g>
</g>
<g>
</g>
<g>
</g>
<g>
</g>
<g>
</g>
<g>
</g>
<g>
</g>
<g>
</g>
<g>
</g>
<g>
</g>
</svg>
